<?xml version="1.0" encoding="iso-8859-1"?>
<!-- Uploaded to: SVG Repo, www.svgrepo.com, Generator: SVG Repo Mixer Tools -->
<svg fill="#000000" version="1.1" id="Layer_1" xmlns="http://www.w3.org/2000/svg" xmlns:xlink="http://www.w3.org/1999/xlink" 
	 viewBox="0 0 512 512" xml:space="preserve">
<g>
	<g>
		<path d="M0,104.073v303.854h512V104.073H0z M477.481,392.276l10.657-10.657l-11.067-11.068l-21.725,21.725h-17.893l10.657-10.657
			l-11.067-11.068l-21.725,21.725h-17.893l10.657-10.657l-11.067-11.068l-21.725,21.725h-17.893l10.657-10.657l-11.067-11.068
			l-21.725,21.725h-17.891l10.657-10.657l-11.067-11.068l-21.725,21.725h-17.893L288,381.619l-11.068-11.068l-21.725,21.725h-17.893
			l10.657-10.657l-11.07-11.069l-21.725,21.725h-17.893l10.657-10.657l-11.067-11.068l-21.725,21.725h-17.893l10.657-10.657
			l-11.067-11.068l-21.725,21.725h-17.891l10.657-10.657l-11.068-11.068l-21.725,21.725H77.2l10.657-10.657L76.788,370.55
			l-21.725,21.725H37.172l10.657-10.657L36.761,370.55l-21.109,21.11V119.725h21.313l-10.657,10.657l11.067,11.068L59.1,119.725
			h17.893l-10.657,10.657l11.068,11.068l21.726-21.725h17.891l-10.657,10.657l11.067,11.068l21.725-21.725h17.891l-10.657,10.657
			l11.067,11.068l21.725-21.725h17.893l-10.657,10.657l11.068,11.068l21.725-21.725h17.893l-10.657,10.657l11.067,11.068
			l21.725-21.725h17.893l-10.657,10.657l11.067,11.068l21.725-21.725h17.893l-10.657,10.657l11.067,11.068l21.725-21.725h17.891
			l-10.657,10.657l11.067,11.068l21.725-21.725h17.893l-10.657,10.657l11.067,11.068l21.725-21.725h17.893l-10.657,10.657
			l11.068,11.068l21.725-21.725h17.893l-10.657,10.657l11.067,11.068l18.663-18.663v269.489H477.481z"/>
	</g>
</g>
<g>
	<g>
		<path d="M417.155,256.18c-26.387,0-47.854,21.467-47.854,47.854s21.467,47.854,47.854,47.854
			c26.387,0,47.854-21.467,47.854-47.854C465.01,277.648,443.543,256.18,417.155,256.18z M417.155,336.237
			c-17.757,0-32.202-14.446-32.202-32.202c0-17.756,14.446-32.202,32.202-32.202c17.757,0,32.202,14.446,32.202,32.202
			C449.357,321.791,434.912,336.237,417.155,336.237z"/>
	</g>
</g>
<g>
	<g>
		<path d="M417.155,280.316c-13.144,0-23.837,10.273-23.837,23.838h15.652c0-4.174,3.671-8.186,8.185-8.186
			c4.513,0,8.185,4.012,8.185,8.186h15.652C440.993,290.588,430.3,280.316,417.155,280.316z"/>
	</g>
</g>
<g>
	<g>
		<rect x="272.692" y="336.501" width="88.696" height="15.652"/>
	</g>
</g>
<g>
	<g>
		<rect x="320.692" y="312.501" width="40.696" height="15.652"/>
	</g>
</g>
<g>
	<g>
		<rect x="56.692" y="175.806" width="184.696" height="15.652"/>
	</g>
</g>
<g>
	<g>
		<rect x="56.692" y="208.153" width="88.696" height="15.652"/>
	</g>
</g>
<g>
	<g>
		<rect x="161.04" y="208.153" width="24" height="15.652"/>
	</g>
</g>
<g>
	<g>
		<rect x="56.692" y="240.501" width="160.696" height="15.652"/>
	</g>
</g>
<g>
	<g>
		<rect x="56.692" y="271.806" width="16.696" height="15.652"/>
	</g>
</g>
<g>
	<g>
		<rect x="80.692" y="271.806" width="16.696" height="15.652"/>
	</g>
</g>
<g>
	<g>
		<rect x="104.692" y="271.806" width="16.696" height="15.652"/>
	</g>
</g>
<g>
	<g>
		<rect x="128.692" y="271.806" width="16.696" height="15.652"/>
	</g>
</g>
<g>
	<g>
		<rect x="152.692" y="271.806" width="16.696" height="15.652"/>
	</g>
</g>
<g>
	<g>
		<rect x="176.692" y="271.806" width="16.696" height="15.652"/>
	</g>
</g>
<g>
	<g>
		<rect x="200.692" y="271.806" width="16.696" height="15.652"/>
	</g>
</g>
</svg>