<svg width="2000" height="1600" viewBox="0 0 2000 1600" fill="none" xmlns="http://www.w3.org/2000/svg">
<g clip-path="url(#clip0_5_306)">
<rect width="2000" height="1600" fill="white"/>
<rect x="-2" y="-221" width="29.8718" height="2648.82" transform="rotate(45 -2 -221)" fill="#FF0000"/>
<rect x="78" y="-221" width="29.8718" height="2648.82" transform="rotate(45 78 -221)" fill="#0029FF"/>
<rect x="158" y="-221" width="29.8718" height="2648.82" transform="rotate(45 158 -221)" fill="#FF0000"/>
<rect x="238" y="-221" width="29.8718" height="2648.82" transform="rotate(45 238 -221)" fill="#0029FF"/>
<rect x="318" y="-216.127" width="29.8718" height="2648.82" transform="rotate(45 318 -216.127)" fill="#FF0000"/>
<rect x="398" y="-216.127" width="29.8718" height="2648.82" transform="rotate(45 398 -216.127)" fill="#0029FF"/>
<rect x="478" y="-216.127" width="29.8718" height="2648.82" transform="rotate(45 478 -216.127)" fill="#FF0000"/>
<rect x="558" y="-216.127" width="29.8718" height="2648.82" transform="rotate(45 558 -216.127)" fill="#0029FF"/>
<rect x="638" y="-221" width="29.8718" height="2648.82" transform="rotate(45 638 -221)" fill="#FF0000"/>
<rect x="718" y="-221" width="29.8718" height="2648.82" transform="rotate(45 718 -221)" fill="#0029FF"/>
<rect x="798" y="-221" width="29.8718" height="2648.82" transform="rotate(45 798 -221)" fill="#FF0000"/>
<rect x="878" y="-221" width="29.8718" height="2648.82" transform="rotate(45 878 -221)" fill="#0029FF"/>
<rect x="958" y="-216.127" width="29.8718" height="2648.82" transform="rotate(45 958 -216.127)" fill="#FF0000"/>
<rect x="1038" y="-216.127" width="29.8718" height="2648.82" transform="rotate(45 1038 -216.127)" fill="#0029FF"/>
<rect x="1118" y="-216.127" width="29.8718" height="2648.82" transform="rotate(45 1118 -216.127)" fill="#FF0000"/>
<rect x="1198" y="-216.127" width="29.8718" height="2648.82" transform="rotate(45 1198 -216.127)" fill="#0029FF"/>
<rect x="1278" y="-221" width="29.8718" height="2648.82" transform="rotate(45 1278 -221)" fill="#FF0000"/>
<rect x="1358" y="-221" width="29.8718" height="2648.82" transform="rotate(45 1358 -221)" fill="#0029FF"/>
<rect x="1438" y="-221" width="29.8718" height="2648.82" transform="rotate(45 1438 -221)" fill="#FF0000"/>
<rect x="1518" y="-221" width="29.8718" height="2648.82" transform="rotate(45 1518 -221)" fill="#0029FF"/>
<rect x="1598" y="-216.127" width="29.8718" height="2648.82" transform="rotate(45 1598 -216.127)" fill="#FF0000"/>
<rect x="1678" y="-216.127" width="29.8718" height="2648.82" transform="rotate(45 1678 -216.127)" fill="#0029FF"/>
<rect x="1758" y="-216.127" width="29.8718" height="2648.82" transform="rotate(45 1758 -216.127)" fill="#FF0000"/>
<rect x="1838" y="-216.127" width="29.8718" height="2648.82" transform="rotate(45 1838 -216.127)" fill="#0029FF"/>
<rect x="1918" y="-221" width="29.8718" height="2648.82" transform="rotate(45 1918 -221)" fill="#FF0000"/>
<rect x="1998" y="-221" width="29.8718" height="2648.82" transform="rotate(45 1998 -221)" fill="#0029FF"/>
<rect x="2078" y="-221" width="29.8718" height="2648.82" transform="rotate(45 2078 -221)" fill="#FF0000"/>
<rect x="2158" y="-221" width="29.8718" height="2648.82" transform="rotate(45 2158 -221)" fill="#0029FF"/>
<rect x="2238" y="-216.127" width="29.8718" height="2648.82" transform="rotate(45 2238 -216.127)" fill="#FF0000"/>
<rect x="2318" y="-216.127" width="29.8718" height="2648.82" transform="rotate(45 2318 -216.127)" fill="#0029FF"/>
<rect x="2398" y="-216.127" width="29.8718" height="2648.82" transform="rotate(45 2398 -216.127)" fill="#FF0000"/>
<rect x="2478" y="-216.127" width="29.8718" height="2648.82" transform="rotate(45 2478 -216.127)" fill="#0029FF"/>
<rect x="2558" y="-221" width="29.8718" height="2648.82" transform="rotate(45 2558 -221)" fill="#FF0000"/>
<rect x="2638" y="-221" width="29.8718" height="2648.82" transform="rotate(45 2638 -221)" fill="#0029FF"/>
<rect x="2718" y="-221" width="29.8718" height="2648.82" transform="rotate(45 2718 -221)" fill="#FF0000"/>
<rect x="2798" y="-221" width="29.8718" height="2648.82" transform="rotate(45 2798 -221)" fill="#0029FF"/>
<rect x="2878" y="-221" width="29.8718" height="2648.82" transform="rotate(45 2878 -221)" fill="#FF0000"/>
<rect x="2958" y="-221" width="29.8718" height="2648.82" transform="rotate(45 2958 -221)" fill="#0029FF"/>
<rect x="3038" y="-221" width="29.8718" height="2648.82" transform="rotate(45 3038 -221)" fill="#FF0000"/>
<rect x="3118" y="-221" width="29.8718" height="2648.82" transform="rotate(45 3118 -221)" fill="#0029FF"/>
<rect x="3198" y="-216.127" width="29.8718" height="2648.82" transform="rotate(45 3198 -216.127)" fill="#FF0000"/>
<rect x="3278" y="-216.127" width="29.8718" height="2648.82" transform="rotate(45 3278 -216.127)" fill="#0029FF"/>
<rect x="3358" y="-216.127" width="29.8718" height="2648.82" transform="rotate(45 3358 -216.127)" fill="#FF0000"/>
<rect x="3438" y="-216.127" width="29.8718" height="2648.82" transform="rotate(45 3438 -216.127)" fill="#0029FF"/>
<rect x="3518" y="-221" width="29.8718" height="2648.82" transform="rotate(45 3518 -221)" fill="#FF0000"/>
<rect x="3598" y="-221" width="29.8718" height="2648.82" transform="rotate(45 3598 -221)" fill="#0029FF"/>
<rect x="3678" y="-221" width="29.8718" height="2648.82" transform="rotate(45 3678 -221)" fill="#FF0000"/>
<rect x="3758" y="-221" width="29.8718" height="2648.82" transform="rotate(45 3758 -221)" fill="#0029FF"/>
<rect x="3838" y="-216.127" width="29.8718" height="2648.82" transform="rotate(45 3838 -216.127)" fill="#FF0000"/>
</g>
<defs>
<clipPath id="clip0_5_306">
<rect width="2000" height="1600" fill="white"/>
</clipPath>
</defs>
</svg>
