<svg width="244" height="325" viewBox="0 0 244 325" fill="none" xmlns="http://www.w3.org/2000/svg">
<path d="M121.875 0C54.4375 0 0 54.4375 0 121.875C0 203.125 121.875 325 121.875 325C121.875 325 243.75 203.125 243.75 121.875C243.75 54.4375 189.313 0 121.875 0ZM121.875 40.625C166.969 40.625 203.125 77.1875 203.125 121.875C203.125 166.969 166.969 203.125 121.875 203.125C77.1875 203.125 40.625 166.969 40.625 121.875C40.625 77.1875 77.1875 40.625 121.875 40.625Z" fill="#375898"/>
<g clip-path="url(#clip0_228_324)">
<path d="M171.772 87.472C173.349 87.04 174.586 86.3294 176.084 86.3526C179.822 86.4107 181.131 87.6501 181.138 91.3549C181.142 93.9161 180.874 96.51 181.185 99.0327C182.432 109.135 178.744 117.784 173.383 125.892C169.27 132.112 164.789 138.069 159.166 143.073C155.856 146.018 151.934 147.796 147.881 149.379C146.326 149.986 144.648 150.364 143.127 151.744C148.737 162.1 156.937 169.164 168.243 173.057C168.968 170.685 169.177 168.392 171.91 167.88C174.61 167.375 176.692 168.533 177.101 171.234C177.294 172.512 177.553 173.736 178.563 174.511C182.525 177.551 180.867 181.601 180.997 185.62C177.548 185.114 175.581 182.758 173.006 181.19C168.892 185.351 163.869 186.73 158.077 186.442C152.116 186.145 146.122 186.209 140.154 186.426C135.944 186.581 132.649 184.666 129.499 182.415C128.096 181.412 127.235 181.507 126.06 182.504C122.773 185.296 119.088 186.639 114.632 186.449C108.004 186.166 101.352 186.248 94.716 186.416C90.6477 186.519 87.4618 184.678 84.4374 182.424C83.2011 181.503 82.2715 181.377 81.2222 182.381C76.2924 187.098 70.1549 186.508 64.1004 186.342C62.2232 186.291 62.2745 184.952 62.3903 183.733C62.5157 182.413 61.5855 180.516 64.1024 180.271C67.8088 179.911 71.3528 178.934 74.5391 176.945C76.6624 175.62 78.6336 174.079 78.8554 171.312C79.0585 168.78 80.5815 167.506 82.8719 167.392C85.0152 167.285 86.5544 168.775 86.9107 170.729C88.0036 176.723 92.8715 178.267 97.5327 179.497C102.343 180.767 107.401 181.014 112.47 179.42C112.558 176.656 112.048 173.87 111.977 171.088C111.861 166.575 112.439 162.045 113.249 157.588C114.035 153.262 114.152 153.213 110.385 151.471C101.993 147.59 93.4499 143.971 85.8758 138.577C72.8536 129.302 65.6291 116.795 65.1921 100.618C65.1058 97.4292 66.3955 94.5271 66.9851 91.4799C67.1109 90.8289 67.4872 90.4626 68.1209 90.4253C71.624 90.2192 75.1791 89.95 78.2671 92.0574C80.2914 93.4389 82.4312 94.8152 84.0308 96.6255C89.6741 103.012 97.3883 104.525 105.135 105.603C111.284 106.459 116.822 108.35 121.758 112.083C125.068 114.585 125.058 114.532 127.964 111.465C131.559 107.673 135.317 104.054 140.392 102.291C142.249 101.647 144.187 101.152 146.129 100.853C153.481 99.72 158.717 94.5852 164.836 91.122C167.047 89.8704 169.031 88.1953 171.772 87.472ZM99.4293 112.686C91.0327 111.612 83.6341 108.573 77.9154 102.033C76.9038 100.876 75.5361 99.9341 73.7005 99.616C73.6476 100.222 73.5644 100.675 73.5751 101.126C73.8817 113.882 79.8845 123.759 89.8484 131.055C98.9225 137.699 109.237 142.241 119.762 146.192C123.206 147.485 123.56 148.12 122.685 151.877C121.073 158.79 120.016 165.773 120.254 172.898C120.285 173.833 119.769 175.038 121.237 175.636C122.984 174.541 123.36 172.717 123.878 170.903C124.447 168.907 125.741 167.609 128.008 167.783C130.039 167.94 131.603 168.562 131.867 171.022C132.237 174.476 134.434 176.411 137.529 177.832C140.664 179.272 143.933 180.166 147.251 180.709C151.388 181.386 155.346 179.791 159.479 178.982C152.923 175.325 146.941 171.121 142.16 165.44C137.391 159.772 133.854 153.462 132.522 145.878C135.768 144.793 138.879 143.763 141.982 142.713C147.493 140.851 152.794 138.507 156.667 134.012C161.519 128.381 166.276 122.644 169.612 115.912C172.793 109.491 175.209 102.862 175.22 95.1287C172.471 96.2372 170.078 97.4424 167.896 99.0453C161.63 103.649 155.158 107.763 147.249 109.017C143.838 109.558 140.731 111.05 138.218 113.453C135.898 115.671 133.751 118.073 131.576 120.439C128.855 123.399 126.183 126.404 123.579 129.29C122.059 128.897 122.312 127.817 122.051 126.944C121.221 124.171 120.317 121.643 117.895 119.497C112.659 114.858 106.264 114.03 99.4293 112.686Z" fill="#375898"/>
</g>
<defs>
<clipPath id="clip0_228_324">
<rect width="119.106" height="100.126" fill="white" transform="translate(62.3213 86.3521)"/>
</clipPath>
</defs>
</svg>
